<svg xmlns="http://www.w3.org/2000/svg" viewBox="0 0 78.75 111.19"><defs><style>.cls-1{fill:#434343;}</style></defs><title>1icono-categoria</title><g id="Capa_2" data-name="Capa 2"><g id="Capa_1-2" data-name="Capa 1"><g id="_1" data-name="1"><path class="cls-1" d="M74.44,31.74V25.26a7.72,7.72,0,0,0-7.7-7.7H65.39V17.4a7.44,7.44,0,0,0-5.22-7.27c-.28-.1-.62-.21-1-.32a14.08,14.08,0,0,1-3.29-1.32c-.49-.48-1-1.09-1.55-1.73C52.05,4.09,48.94.44,43.46.44a11.61,11.61,0,0,0-8,3.45A5.08,5.08,0,0,0,30.57,0H13.21a5.11,5.11,0,0,0-5.1,5.1V8.51a5,5,0,0,0,.51,2.19,4.82,4.82,0,0,0-2,3.89v4A4.82,4.82,0,0,0,4.7,22.4v9.3A4.83,4.83,0,0,0,0,36.52v64.16a10.51,10.51,0,0,0,10.5,10.51H68.25a10.51,10.51,0,0,0,10.5-10.51V36.52A4.82,4.82,0,0,0,74.44,31.74ZM8.7,22.4a.83.83,0,0,1,.58-.78H34.51a.82.82,0,0,1,.57.78v9.28H8.7Zm2.77-8.64H32.32a.83.83,0,0,1,.83.83v3H10.63v-3A.84.84,0,0,1,11.47,13.76Zm59,11.5v6.42H39.13V22.4a.84.84,0,0,1,.83-.84H66.74A3.7,3.7,0,0,1,70.44,25.26Zm-27-20.82c3.63,0,5.76,2.5,7.82,4.91.61.71,1.18,1.38,1.78,2,1,1,2.84,1.65,4.92,2.3.34.1.64.19.89.28a3.46,3.46,0,0,1,2.52,3.49v.16H40a4.82,4.82,0,0,0-2.81.92V14.59a4.82,4.82,0,0,0-2-3.89c.06-.12.12-.25.17-.37C37.38,7.39,40,4.44,43.46,4.44ZM12.11,5.1A1.1,1.1,0,0,1,13.21,4H30.57a1.1,1.1,0,0,1,1.1,1.1V8.51a1.11,1.11,0,0,1-1.1,1.11H13.21a1.11,1.11,0,0,1-1.1-1.11Zm62.64,95.58a6.51,6.51,0,0,1-6.5,6.51H10.5A6.51,6.51,0,0,1,4,100.68V36.52a.83.83,0,0,1,.83-.83H73.92a.83.83,0,0,1,.83.83Z"/><path class="cls-1" d="M59.16,44.93a6.46,6.46,0,0,0-2,12.61V61.9a17.88,17.88,0,0,1-35.76,0V57.55a6.49,6.49,0,1,0-4,0V61.9a21.88,21.88,0,0,0,43.76,0V57.54a6.46,6.46,0,0,0-2-12.61Zm-39.75,4a2.47,2.47,0,1,1-2.47,2.47A2.47,2.47,0,0,1,19.41,48.93Zm39.75,4.93a2.47,2.47,0,1,1,2.47-2.46A2.46,2.46,0,0,1,59.16,53.86Z"/></g></g></g></svg>