<svg xmlns="http://www.w3.org/2000/svg" viewBox="0 0 102.38 102.38"><defs><style>.cls-1{fill:#434343;}</style></defs><title>2icono-categoria</title><g id="Capa_2" data-name="Capa 2"><g id="Capa_1-2" data-name="Capa 1"><g id="_2" data-name="2"><path class="cls-1" d="M100.66,9.53l-7.81-7.8a5.9,5.9,0,0,0-8.35,0L82.84,3.38a3.49,3.49,0,0,0-1,3.07l-.94,1.24a26.71,26.71,0,0,1-5,4.65,19,19,0,0,1-1.73,1.08l-1.94,1L49.67,26.62h0L49,27h0l-.61.33A62.46,62.46,0,0,0,31,42.73l-.59.86h0l-.39.58s0,0,0,0L19.65,59.42a12.79,12.79,0,0,1-1,1.23c-.08.09-.17.17-.26.26a11.5,11.5,0,0,1-.85.86c-.13.12-.27.22-.4.33s-.54.46-.82.66-.36.23-.53.34-.52.35-.79.51L7.79,66.85l-.14.06A14.32,14.32,0,0,0,0,78.43a13.16,13.16,0,0,0,3.78,10L14,98.59a13.15,13.15,0,0,0,9.2,3.79c.25,0,.5,0,.75,0a14.28,14.28,0,0,0,11.52-7.63l3.06-6.88.24-.49c.16-.27.34-.53.52-.8s.21-.35.33-.52.4-.49.6-.74.25-.33.39-.48.51-.53.78-.78c.11-.11.21-.22.33-.32a12.53,12.53,0,0,1,1.21-1L58.79,72h0l.37-.25.39-.26.1-.08c1.55-1.2,3-2.46,4.47-3.8a62.74,62.74,0,0,0,11-13.67l.29-.54h0l.34-.64h0L89,28.16a24.74,24.74,0,0,1,5.61-6.93l1-.82a3.65,3.65,0,0,0,1,.15,3.49,3.49,0,0,0,2.47-1l1.66-1.66A5.91,5.91,0,0,0,100.66,9.53ZM57.86,67.68,34.71,44.52A58.52,58.52,0,0,1,49.65,31.24L71.14,52.73A58.33,58.33,0,0,1,57.86,67.68ZM23.71,98.37a9.1,9.1,0,0,1-6.88-2.61L6.62,85.56A9.09,9.09,0,0,1,4,78.68a10.26,10.26,0,0,1,5.46-8.21l6.72-3,0,0h0l.7-.35a18.38,18.38,0,0,0,6-5.41l9.43-13.86L54.54,70,40.65,79.46A19.76,19.76,0,0,0,39,80.75a18.56,18.56,0,0,0-3.76,4.66h0a7.69,7.69,0,0,0-.38.76l-3,6.72A10.26,10.26,0,0,1,23.71,98.37ZM92,18.17a28.89,28.89,0,0,0-6.54,8.07L73.17,49.1,53.29,29.22,76.17,16.93A28.41,28.41,0,0,0,84,10.22l.3-.39,8,8Zm5.85-3.11-1.3,1.3L90.7,10.53,86,5.86l1.3-1.3a1.89,1.89,0,0,1,2.69,0l7.81,7.8A1.92,1.92,0,0,1,97.83,15.06Z"/><path class="cls-1" d="M58.47,57.67a2,2,0,0,0,2.82-2.83l-7.56-7.56a2,2,0,0,0-2.83,2.83Z"/><path class="cls-1" d="M47.7,41.25a2,2,0,1,0-2.83,2.83l1.76,1.76A2,2,0,0,0,49.46,43Z"/></g></g></g></svg>