<svg xmlns="http://www.w3.org/2000/svg" viewBox="0 0 103.26 72.67"><defs><style>.cls-1{fill:#434343;}</style></defs><title>3icono-categoria</title><g id="Capa_2" data-name="Capa 2"><g id="Capa_1-2" data-name="Capa 1"><g id="_3" data-name="3"><path class="cls-1" d="M102.88,30.78c0-1.49-.09-2.78-.12-3.69a26.17,26.17,0,0,0-8-18.64A28.86,28.86,0,0,0,72.36.07C63,.72,56.19,7.56,50.19,13.6,44.76,19.06,39.62,24.23,33.5,24.23a23.7,23.7,0,0,1-8.63-1.55A26.85,26.85,0,0,0,15.27,21,14.93,14.93,0,0,0,0,36.23c0,.05,0,.1,0,.15s0,.06,0,.09c0,2,0,6.18,0,9V47.9A16.62,16.62,0,0,0,5.62,60.19c9.69,9.25,29.25,12.48,46.31,12.48,2.13,0,4.22,0,6.25-.15C85.25,71.25,102.1,61,103.24,45.1,103.3,44.35,103.16,39.68,102.88,30.78Zm-4.15-5s0,0,0,0c0,.17,0,.61,0,1.24,0,.35,0,.71-.05,1.06A24.74,24.74,0,0,1,91.81,43L77.92,4.26a24.77,24.77,0,0,1,14,7A22.8,22.8,0,0,1,98.73,25.79ZM53,16.42l1.16-1.17,4.34,12.08a2,2,0,0,0,1.88,1.32,2,2,0,0,0,.67-.12A2,2,0,0,0,62.29,26L57.38,12.3a1,1,0,0,0,0-.1c4.5-4.2,9.36-7.73,15.3-8.14l1,0,15,42a43.26,43.26,0,0,1-16.26,8.11L68.12,42.22a2,2,0,0,0-3.77,1.35L68.45,55A68.4,68.4,0,0,1,58,56.27c-2.21.11-4.38.16-6.53.16l-10.75-30C45.23,24.25,49.18,20.3,53,16.42ZM33.5,28.23A15.08,15.08,0,0,0,37,27.82L47.19,56.36a108,108,0,0,1-19-2.17L17.76,25.08a24.8,24.8,0,0,1,5.84,1.39A27.34,27.34,0,0,0,33.5,28.23Zm-20-3.14,10,28c-6.66-1.87-12-4.46-15.3-7.64A12.44,12.44,0,0,1,4,36.23,10.82,10.82,0,0,1,13.52,25.09ZM99.26,44.82c-1,13.67-16.41,22.54-41.27,23.7-21.91,1-41.38-3.37-49.61-11.23A12.75,12.75,0,0,1,4,47.9V46.72A19.81,19.81,0,0,0,5.48,48.3c9.42,9,29,12.12,46.14,12.12q3.36,0,6.56-.15c21.54-1,35-10.09,41-20.57C99.23,42.3,99.28,44.42,99.26,44.82Z"/><path class="cls-1" d="M61.78,36.39a2,2,0,0,0,1.88,1.33,2.08,2.08,0,0,0,.68-.12A2,2,0,0,0,65.54,35l-.69-1.92a2,2,0,1,0-3.76,1.35Z"/></g></g></g></svg>