<svg xmlns="http://www.w3.org/2000/svg" viewBox="0 0 99.67 99.67"><defs><style>.cls-1{fill:#434343;}</style></defs><title>8icono-categoria</title><g id="Capa_2" data-name="Capa 2"><g id="Capa_1-2" data-name="Capa 1"><g id="_8" data-name="8"><path class="cls-1" d="M49.83,99.67A49.84,49.84,0,1,1,99.67,49.83,49.89,49.89,0,0,1,49.83,99.67ZM49.83,4A45.84,45.84,0,1,0,95.67,49.83,45.88,45.88,0,0,0,49.83,4Z"/><path class="cls-1" d="M49.83,92.67A42.84,42.84,0,1,1,92.67,49.83,42.88,42.88,0,0,1,49.83,92.67Zm0-81.67A38.84,38.84,0,1,0,88.67,49.83,38.88,38.88,0,0,0,49.83,11Z"/><path class="cls-1" d="M55.75,75.33H40.42a2,2,0,0,1-2-2V60.17H25.25a2,2,0,0,1-2-2V42.83a2,2,0,0,1,2-2H38.42V27.67a2,2,0,0,1,2-2H55.75a2,2,0,0,1,2,2V40.83H70.92a2,2,0,0,1,2,2V58.17a2,2,0,0,1-2,2H57.75V73.33A2,2,0,0,1,55.75,75.33Zm-13.33-4H53.75V58.17a2,2,0,0,1,2-2H68.92V44.83H55.75a2,2,0,0,1-2-2V29.67H42.42V42.83a2,2,0,0,1-2,2H27.25V56.17H40.42a2,2,0,0,1,2,2Z"/></g></g></g></svg>