<svg xmlns="http://www.w3.org/2000/svg" viewBox="0 0 115.25 84.67"><defs><style>.cls-1{fill:#434343;}</style></defs><title>4icono-categoria</title><g id="Capa_2" data-name="Capa 2"><g id="Capa_1-2" data-name="Capa 1"><g id="_4" data-name="4"><path class="cls-1" d="M115,20.83,103.39,1a2,2,0,0,0-1.45-1,2,2,0,0,0-1.67.54l-9.85,9.55A31.71,31.71,0,0,0,68.33,1.17c-6.21,0-14,2.17-21.24,6L18.05,22a2,2,0,0,0-.88.9A32.91,32.91,0,1,0,50.41,79.62a2.14,2.14,0,0,0,.22-.1L85.13,59a30.36,30.36,0,0,0,15-24.57c0-.48,0-1,0-1.46a31.86,31.86,0,0,0-.34-4.61l14-4.66a2,2,0,0,0,1.1-2.9ZM4,51.75A28.92,28.92,0,1,1,32.92,80.67,29,29,0,0,1,4,51.75ZM96.14,34.28A26.36,26.36,0,0,1,83.08,55.59l-21.9,13A32.9,32.9,0,0,0,33,18.84l16-8.15c6.65-3.46,13.9-5.52,19.41-5.52A27.86,27.86,0,0,1,96.17,33C96.17,33.43,96.16,33.86,96.14,34.28ZM99,24.45a31.6,31.6,0,0,0-5.87-11.39l8.11-7.85,9,15.5Z"/><path class="cls-1" d="M42,39.42a8.88,8.88,0,1,0-8.87,8.87A8.88,8.88,0,0,0,42,39.42Zm-8.87,4.87A4.88,4.88,0,1,1,38,39.42,4.88,4.88,0,0,1,33.13,44.29Z"/><path class="cls-1" d="M45.19,53.79a7.44,7.44,0,1,0,7.44,7.44A7.45,7.45,0,0,0,45.19,53.79Zm0,10.88a3.44,3.44,0,1,1,3.44-3.44A3.44,3.44,0,0,1,45.19,64.67Z"/><path class="cls-1" d="M21.19,55.79a7.44,7.44,0,1,0,7.44,7.44A7.45,7.45,0,0,0,21.19,55.79Zm0,10.88a3.44,3.44,0,1,1,3.44-3.44A3.44,3.44,0,0,1,21.19,66.67Z"/><path class="cls-1" d="M14.81,48.67a2,2,0,0,0,1.94-1.52l0-.09a2,2,0,0,0-1.47-2.38,2,2,0,0,0-2.43,1.51,2,2,0,0,0,1.46,2.42A2,2,0,0,0,14.81,48.67Z"/></g></g></g></svg>