<svg xmlns="http://www.w3.org/2000/svg" viewBox="0 0 102.18 117.36"><defs><style>.cls-1{fill:#434343;}</style></defs><title>5icono-categoria</title><g id="Capa_2" data-name="Capa 2"><g id="Capa_1-2" data-name="Capa 1"><g id="_5" data-name="5"><path class="cls-1" d="M71.51,23.19A21.06,21.06,0,0,0,58.94,26.9a28,28,0,0,1,.56-7.18c.52-2.28,2.31-5.34,5-8.61A5.89,5.89,0,0,0,64.3,3.3L62.93,1.85A5.87,5.87,0,0,0,58.76,0a5.81,5.81,0,0,0-4.2,1.65c-9.27,9-10.28,20.2-10,26.16a21.34,21.34,0,0,0-13.85-4.62C17.93,23.19,0,33.89,0,57.69c0,28.25,17.61,59.48,33.64,59.67h.49c8.58,0,11.61-2.75,13.84-4.77,1.23-1.11,1.78-1.57,2.86-1.57l.26,0,.25,0c1.09,0,1.63.46,2.87,1.57,2.22,2,5.26,4.77,13.84,4.77h.48c16-.19,33.65-31.42,33.65-59.67C102.18,33.89,84.24,23.19,71.51,23.19ZM57.35,4.51A1.79,1.79,0,0,1,58.67,4,1.86,1.86,0,0,1,60,4.6L61.39,6a1.89,1.89,0,0,1,.08,2.5c-2.21,2.66-5,6.6-5.87,10.29a33.65,33.65,0,0,0-.45,10.83,6.76,6.76,0,0,1-4,1.53H51a5.32,5.32,0,0,1-2.2-.49C48.4,28,47,14.54,57.35,4.51ZM68.49,113.36c-7.37.08-9.62-1.94-11.6-3.73C55.54,108.41,54,107,51.34,107l-.25,0a2.3,2.3,0,0,0-.26,0c-2.67,0-4.2,1.39-5.54,2.61-2,1.79-4.18,3.83-11.6,3.73C21,113.21,4,85.66,4,57.69c0-21,15.59-30.5,26.67-30.5,6.39,0,9.47,2.32,12.44,4.56,2.25,1.69,4.57,3.44,7.89,3.44h.18c3.32,0,5.64-1.75,7.88-3.44,3-2.24,6-4.56,12.45-4.56,11.07,0,26.67,9.46,26.67,30.5C98.18,85.66,81.18,113.21,68.49,113.36Z"/><path class="cls-1" d="M73.34,33.06l-.19.07A2,2,0,0,0,73.78,37a2,2,0,0,0,.63-.1l.19-.06a2,2,0,1,0-1.26-3.8Z"/><path class="cls-1" d="M84.47,38.18,83,36.75a2,2,0,1,0-2.77,2.88l1.49,1.44a25.57,25.57,0,0,1,7,25.1l-1.24,4.58a2,2,0,0,0,1.41,2.45,1.91,1.91,0,0,0,.52.07,2,2,0,0,0,1.93-1.47l1.24-4.58A29.58,29.58,0,0,0,84.47,38.18Z"/></g></g></g></svg>