<svg xmlns="http://www.w3.org/2000/svg" viewBox="0 0 88.25 117"><defs><style>.cls-1{fill:#434343;}</style></defs><title>6icono-categoria</title><g id="Capa_2" data-name="Capa 2"><g id="Capa_1-2" data-name="Capa 1"><g id="_6" data-name="6"><path class="cls-1" d="M86.61,38.81,70.33,18.43V6.29A6.29,6.29,0,0,0,64,0H23.63a6.3,6.3,0,0,0-6.3,6.29V18.94L.46,39.35A2,2,0,0,0,0,40.63v70.08A6.29,6.29,0,0,0,6.29,117H82a6.29,6.29,0,0,0,6.29-6.29V43.49A7.49,7.49,0,0,0,86.61,38.81ZM47.8,38.5H6.35l14.06-17H63.72ZM21.33,6.29A2.3,2.3,0,0,1,23.63,4H64a2.29,2.29,0,0,1,2.29,2.29V17.5h-45ZM6.29,113A2.3,2.3,0,0,1,4,110.71V42.5H46.67V113Zm78-2.29A2.3,2.3,0,0,1,82,113H50.67V41.29l17.7-18.9L83.49,41.31a3.5,3.5,0,0,1,.76,2.18Z"/><path class="cls-1" d="M25.31,61c-6.37,0-11.56,7-11.56,15.63s5.19,15.62,11.56,15.62,11.57-7,11.57-15.62S31.69,61,25.31,61Zm0,27.25c-4.1,0-7.56-5.32-7.56-11.62S21.21,65,25.31,65s7.57,5.32,7.57,11.63S29.41,88.25,25.31,88.25Z"/></g></g></g></svg>