<svg xmlns="http://www.w3.org/2000/svg" viewBox="0 0 79.57 121.75"><defs><style>.cls-1{fill:#434343;}</style></defs><title>10icono-categoria</title><g id="Capa_2" data-name="Capa 2"><g id="Capa_1-2" data-name="Capa 1"><g id="_10" data-name="10"><path class="cls-1" d="M60.81,4.71H57.38V3.77A3.78,3.78,0,0,0,53.6,0H20.79A20.82,20.82,0,0,0,0,20.79a3.64,3.64,0,0,0,3.63,3.63H12.5v4.33a4.65,4.65,0,0,0-3.87,4.58V115.5a6.25,6.25,0,0,0,6.25,6.25H59a6.25,6.25,0,0,0,6.25-6.25V69.31A6.23,6.23,0,0,0,63.56,65L40.75,40.68V33.33a4.66,4.66,0,0,0-3.87-4.58V24.42h8L52,35.2a6.47,6.47,0,0,0,5.42,2.93h2.27a3.72,3.72,0,0,0,3.1-5.76L57,23.57a2,2,0,0,0,.37-1.15V19.71h3.43a5.11,5.11,0,0,0,5.11-5.11V9.81A5.11,5.11,0,0,0,60.81,4.71ZM20.79,4H53.38V20.42H4A16.82,16.82,0,0,1,20.79,4ZM36.08,32.67a.67.67,0,0,1,.67.66V40H12.63V33.33a.66.66,0,0,1,.66-.66H36.08ZM12.63,44H38.38l8.08,8.63H12.63ZM61.25,69.31V115.5A2.25,2.25,0,0,1,59,117.75H14.88a2.25,2.25,0,0,1-2.25-2.25V56.63H50l.17,0L60.64,67.77A2.23,2.23,0,0,1,61.25,69.31ZM32.88,28.67H16.5V24.42H32.88Zm24.56,5.46A2.53,2.53,0,0,1,55.35,33l-5.66-8.58h3.09l6.4,9.71ZM61.92,14.6a1.11,1.11,0,0,1-1.11,1.11H57.38v-7h3.43a1.11,1.11,0,0,1,1.11,1.1Z"/><path class="cls-1" d="M77.57,10.21H70.91a2,2,0,0,0,0,4h6.66a2,2,0,0,0,0-4Z"/><path class="cls-1" d="M70.91,8.71a2,2,0,0,0,1.41-.58L77,3.41A2,2,0,0,0,74.21.59L69.5,5.3a2,2,0,0,0,1.41,3.41Z"/><path class="cls-1" d="M72.32,16.29a2,2,0,1,0-2.82,2.83l4.71,4.71a2,2,0,0,0,1.41.59A2,2,0,0,0,77,21Z"/></g></g></g></svg>