<svg xmlns="http://www.w3.org/2000/svg" viewBox="0 0 102.04 83.79"><defs><style>.cls-1{fill:#434343;}</style></defs><title>7icono-categoria</title><g id="Capa_2" data-name="Capa 2"><g id="Capa_1-2" data-name="Capa 1"><path id="_7" data-name="7" class="cls-1" d="M100.34,5.06C91.93-5.07,59,0,32.55,20.36s-38,49.06-30.1,60.05a8.39,8.39,0,0,0,5.88,3.22,15.88,15.88,0,0,0,2.35.16c11.44,0,32-10,52.47-25.79,22-16.94,37.61-35.61,38.82-46.45A8.36,8.36,0,0,0,100.34,5.06ZM62.49,8.46l10.08,4.71a2.51,2.51,0,0,1,1.22,3.36,2.53,2.53,0,0,1-3.36,1.22L56.05,11Q59.31,9.61,62.49,8.46ZM35,23.53l.37-.28,13.21,7.63A2.53,2.53,0,0,1,46,35.26l-14.89-8.6C32.39,25.6,33.66,24.55,35,23.53ZM25.82,47.88a2.53,2.53,0,0,1-2.53,4.38l-9.91-5.72q1.36-2.07,2.92-4.16ZM98,11.1C96.93,20.63,81.25,39,60.71,54.83S18.4,81.05,8.91,79.67A4.58,4.58,0,0,1,5.7,78.08C2.23,73.24,4.07,62.2,11.27,49.94l10,5.78h0a6.48,6.48,0,0,0,3.25.88,6.53,6.53,0,0,0,3.28-12.19l-9-5.22A96.38,96.38,0,0,1,28,29.45L44,38.72h0a6.48,6.48,0,0,0,3.25.88,6.53,6.53,0,0,0,3.28-12.19L38.9,20.68a102.53,102.53,0,0,1,12.44-7.43l17.4,8.12a6.44,6.44,0,0,0,2.75.62A6.53,6.53,0,0,0,74.26,9.54L68.08,6.65a63.47,63.47,0,0,1,17-2.7c5.8,0,10.14,1.26,12.14,3.66h0A4.52,4.52,0,0,1,98,11.1Z"/></g></g></svg>