<svg xmlns="http://www.w3.org/2000/svg" viewBox="0 0 64.67 128.79"><defs><style>.cls-1{fill:#434343;}</style></defs><title>9icono-categoria</title><g id="Capa_2" data-name="Capa 2"><g id="Capa_1-2" data-name="Capa 1"><g id="_9" data-name="9"><path class="cls-1" d="M14.46,87.74H50.21a2,2,0,0,0,2-2V62.37a2,2,0,0,0-2-2H14.46a2,2,0,0,0-2,2V85.74A2,2,0,0,0,14.46,87.74Zm2-23.37H48.21V83.74H16.46Z"/><path class="cls-1" d="M64.67,41.12h0a2.34,2.34,0,0,0-.08-.53l0-.13a1.89,1.89,0,0,0-.24-.47l0-.06a2.38,2.38,0,0,0-.35-.36s0,0-.05,0L45.31,25.6l15.26,3.09a3.21,3.21,0,0,0,.68.07,3.42,3.42,0,0,0,3.42-3.42V12.4a3.42,3.42,0,0,0-4.1-3.35L48.93,11.41a1,1,0,0,0,0-.16V7.78A7.93,7.93,0,0,0,40.89,0H23.77a7.93,7.93,0,0,0-8,7.78v3.47c0,.05,0,.1,0,.16L4.1,9.05A3.41,3.41,0,0,0,0,12.4V25.34a3.41,3.41,0,0,0,3.41,3.42,3.23,3.23,0,0,0,.69-.07L19.35,25.6.79,39.52s0,0-.07.07a2.06,2.06,0,0,0-.29.3,1.47,1.47,0,0,1-.1.13,2.22,2.22,0,0,0-.2.41l-.06.2A2.32,2.32,0,0,0,0,41c0,.06,0,.11,0,.16v81.36a6.26,6.26,0,0,0,6.25,6.26H58.41a6.27,6.27,0,0,0,6.26-6.26V41.12Zm-32.44-19a3.68,3.68,0,0,1-.58-.08,2.91,2.91,0,0,1-.39-.12L31,21.82a2.85,2.85,0,0,1-.45-.25l0,0a3.25,3.25,0,1,1,5.1-2.67,3.21,3.21,0,0,1-.4,1.54,1,1,0,0,0-.16.2,3.27,3.27,0,0,1-2.72,1.51Zm28.44-9V24.63L39.48,20.34a7.28,7.28,0,0,0,0-2.94ZM19.72,7.78A3.93,3.93,0,0,1,23.77,4H40.89A3.93,3.93,0,0,1,45,7.78v3.47c0,.11-.14.22-.33.22H20c-.18,0-.32-.11-.32-.22ZM4,24.63V13.11l21.28,4.31a7.08,7.08,0,0,0,0,2.9Zm23.64-.24a7.22,7.22,0,0,0,4.69,1.73h.05a7.19,7.19,0,0,0,4.67-1.71L56.67,39.12H8Zm33,98.14a2.26,2.26,0,0,1-2.26,2.26H6.25A2.26,2.26,0,0,1,4,122.53V43.12H60.67Z"/></g></g></g></svg>